<svg id="Capa_1" data-name="Capa 1" xmlns="http://www.w3.org/2000/svg" viewBox="0 0 315.75 194.27"><defs><style>.cls-1{fill:#0071ce;}.cls-2{fill:#fff;}.cls-3{fill:#f7bf00;}</style></defs><title>logotipo-color</title><rect class="cls-1" x="-0.24" y="0.04" width="316" height="194"/><path class="cls-2" d="M17.92,6H35.39L22.77,72.43H54.19L51.28,87.71H2.39Z"/><path class="cls-2" d="M117,51.44c0,21.72-14.92,37.61-35.42,37.61-15,0-25.11-9.83-25.11-24.63,0-20.5,14.31-37.48,35.42-37.48C107.81,26.94,117,37.86,117,51.44ZM74.57,64.18c0,6.91,3.4,11.52,9.58,11.52C93.49,75.7,99,61.63,99,51.56c0-5.45-2.42-11.28-9.34-11.28C79.54,40.28,74.57,55,74.57,64.18Z"/><path class="cls-2" d="M181.19,87.71,197.57,1.59h17.35l-9.83,51.55h.24c1.82-2.3,3.64-4.61,5.34-6.67l15.16-18.08h21.59L222.19,52.9l16.5,34.81H219.16L208.73,62.36l-6.55,6.31-3.64,19Z"/><path class="cls-2" d="M180.71,51.44c0-13.58-9.22-24.5-25.11-24.5-21.11,0-35.42,17-35.42,37.48a26.34,26.34,0,0,0,3.07,12.78,35.35,35.35,0,0,1,10.89,4.88,27.9,27.9,0,0,1,7,6.7,33.56,33.56,0,0,0,4.2.27C165.79,89.05,180.71,73.16,180.71,51.44ZM138.25,64.18c0-9.22,5-23.9,15-23.9,6.92,0,9.34,5.83,9.34,11.28,0,10.07-5.45,24.14-14.79,24.14C141.65,75.7,138.25,71.09,138.25,64.18Z"/><path class="cls-2" d="M193.06,108a69.81,69.81,0,0,0-19.65-2.91c-11.78,0-21,3.5-27.76,9a36.15,36.15,0,0,1-13.33,21.37,44.75,44.75,0,0,0-1.37,11c0,12.37,7.28,20.62,18,20.62,6.92,0,14.56-3.28,20-13.1h.24c-.24,4.24-.6,8.25-.73,11.76h16c-.24-7.4,1-19,2.42-26.68Zm-22.32,24.51C168,147,161.52,153,156.3,153c-4.85,0-7.15-4-7.15-9.83,0-11,8.25-24.87,19.53-24.87a25.21,25.21,0,0,1,4.73.49Z"/><path class="cls-2" d="M212.83,106.39l3.64,25.84c.85,6.19,1.45,10.43,1.94,14.2h.24c1.34-3.64,2.67-7.4,5.22-13.83l10.8-26.21H253.1l-21.22,42.7C224,164.86,217,175.54,209.07,182.94c-6.91,6.55-15.16,9.58-19,10.19l-3.88-15a38.37,38.37,0,0,0,10.07-4.61,32.84,32.84,0,0,0,9.71-10.31,4,4,0,0,0,.24-2.92l-11.65-53.86Z"/><path class="cls-3" d="M55.9,165.39a52.21,52.21,0,0,1-3.72-4.76c-4.45,3.31-10.23,5.89-18.7,5.89-13,0-21.59-7.13-21.59-18.39,0-10.53,7.85-17.25,16.84-21.48l.1-.31C26.66,122.72,25,118.8,25,114.56c0-11.26,8.88-19.94,21.79-19.94,10.44,0,17.67,6.2,17.67,15.5,0,8.06-6.1,14-17.25,19.21v.31C50,134,53.73,139.15,56.52,143,61,137.91,64,131.5,66,125.3H79.76c-3.72,10.64-8.58,19.63-16.43,27.07a151.33,151.33,0,0,0,10.13,13Zm-9.72-13.33c-3.51-4.55-8.26-11.16-12.29-17.46-3.1,2.27-6.82,5.79-6.82,11,0,5.37,3.62,9.82,10.64,9.82A12.18,12.18,0,0,0,46.18,152.06Zm-7.85-39a14.17,14.17,0,0,0,3.1,8.68c5.37-2.48,9.82-6.3,9.82-11.47,0-3.2-1.76-6-5.79-6S38.33,108.05,38.33,113Z"/><path class="cls-2" d="M129.62,88.68C125,85.49,118.94,84,113,83.55A42,42,0,0,1,84.38,97L80.53,117.3H91l-3.72,10.64c-3.55,10.15-7.91,18.23-13.49,24.92l0,.26c1.78,2.32,3.73,4.71,5.74,7l4.8,5.55H88.5l5.58-29.47c1.82.12,4.24.48,7.15.48,10,0,19.53-2.42,26.21-7.64a28.42,28.42,0,0,0,11-22.93C138.48,98.27,135.2,92.44,129.62,88.68Zm-26.08,33.85a32,32,0,0,1-6.79-.61l4.61-24.14a45.76,45.76,0,0,1,7.15-.48c6.67,0,12.38,2.54,12.38,10.31C120.89,115.86,114,122.53,103.54,122.53Z"/><path class="cls-3" d="M277.76,28a36,36,0,1,0,36,36A36,36,0,0,0,277.76,28Zm14,22a7,7,0,0,1,7,7h-14A7,7,0,0,1,291.76,50Zm-28-3a7,7,0,1,1-7,7A7,7,0,0,1,263.76,47Zm14,41a24,24,0,0,1-23.25-18H301A24,24,0,0,1,277.76,88Z"/></svg>